<svg width="33" height="33" viewBox="0 0 33 33" fill="none" xmlns="http://www.w3.org/2000/svg">
<path d="M33 16.5C33 25.6127 25.6127 33 16.5 33C7.3873 33 0 25.6127 0 16.5C0 7.3873 7.3873 0 16.5 0C25.6127 0 33 7.3873 33 16.5Z" fill="#F6B716"/>
<path d="M22.2653 12.8198C22.261 12.7628 22.2133 12.7188 22.1562 12.7188H20.7344C20.4323 12.7188 20.1875 12.4739 20.1875 12.1719C20.1875 10.4229 18.7645 9 17.0156 9C15.2667 9 13.8437 10.4229 13.8437 12.1719C13.8437 12.4739 13.5989 12.7188 13.2969 12.7188H11.875C11.8179 12.7188 11.7702 12.7628 11.7659 12.8198L11.0003 22.8823C10.998 22.9126 11.0084 22.9426 11.0292 22.9649C11.0499 22.9873 11.079 23 11.1094 23H22.9219C22.9523 23 22.9814 22.9873 23.002 22.965C23.0227 22.9427 23.0332 22.9127 23.0309 22.8824L22.2653 12.8198ZM14.7187 12.1719C14.7187 10.9054 15.749 9.875 17.0156 9.875C18.2822 9.875 19.3125 10.9054 19.3125 12.1719C19.3125 12.4739 19.0676 12.7188 18.7656 12.7188H15.2656C14.9636 12.7188 14.7187 12.4739 14.7187 12.1719ZM14.2812 15.7812C13.678 15.7812 13.1875 15.2906 13.1875 14.6875C13.1875 14.5941 13.1975 14.5028 13.2175 14.4151C13.3246 13.9459 13.8437 14.2063 13.8437 14.6875C13.8437 14.9288 14.0401 15.125 14.2812 15.125C14.5224 15.125 14.7187 14.9288 14.7187 14.6875C14.7187 14.2066 15.2369 13.9468 15.3447 14.4155C15.3649 14.5032 15.375 14.5945 15.375 14.6875C15.375 15.2906 14.8844 15.7812 14.2812 15.7812ZM19.75 15.7812C19.1468 15.7812 18.6562 15.2906 18.6562 14.6875C18.6562 14.5941 18.6662 14.5028 18.6863 14.4151C18.7933 13.9459 19.3125 14.2063 19.3125 14.6875C19.3125 14.9288 19.5088 15.125 19.75 15.125C19.9912 15.125 20.1875 14.9288 20.1875 14.6875C20.1875 14.2066 20.7056 13.9468 20.8135 14.4155C20.8336 14.5032 20.8437 14.5945 20.8437 14.6875C20.8437 15.2906 20.3532 15.7812 19.75 15.7812Z" fill="white"/>
</svg>
